<svg width="200" height="60" viewBox="0 0 200 60" fill="none" xmlns="http://www.w3.org/2000/svg">
  <!-- Mobile icon outline -->
  <rect x="15" y="10" width="50" height="40" rx="8" stroke="#2D3748" stroke-width="4" fill="none"/>
  
  <!-- Chart line in mobile -->
  <path d="M25 35L30 25L40 30L55 15" stroke="#2D3748" stroke-width="4" stroke-linecap="round" stroke-linejoin="round"/>
  
  <!-- Menu bar -->
  <line x1="25" y1="15" x2="45" y2="15" stroke="#2D3748" stroke-width="4" stroke-linecap="round"/>
  
  <!-- Dots at bottom -->
  <circle cx="25" cy="45" r="2" fill="#3B82F6"/>
  <circle cx="32" cy="45" r="2" fill="#3B82F6"/>
  <circle cx="39" cy="45" r="2" fill="#3B82F6"/>
  <circle cx="46" cy="45" r="2" fill="#F97316"/>
  <circle cx="53" cy="45" r="2" fill="#F97316"/>
  
  <!-- Text "beanie.ai" -->
  <path d="M85 20V40C85 42.2 87 44 89.5 44H100C102.8 44 105 41.8 105 39C105 36.7 103.3 34.8 101.2 34.3C102.3 33.4 103 32 103 30.5C103 27.5 100.5 25 97.5 25H89.5C87.6 25 86 23.4 86 21.5C86 20.7 86.7 20 87.5 20H85ZM95 31.5V28H97.5C98.9 28 100 29.1 100 30.5C100 31.9 98.9 33 97.5 33H95V31.5ZM95 36V41H100C101.7 41 103 39.7 103 38C103 36.3 101.7 35 100 35H95V36Z" fill="#2D3748"/>
  <path d="M115 23C112.2 23 110 25.2 110 28V44H113V28C113 26.9 113.9 26 115 26C116.1 26 117 26.9 117 28V36C117 40.4 120.6 44 125 44C129.4 44 133 40.4 133 36V23H130V36C130 38.8 127.8 41 125 41C122.2 41 120 38.8 120 36V28C120 25.2 117.8 23 115 23Z" fill="#2D3748"/>
  <path d="M144 23C139.6 23 136 26.6 136 31V36C136 40.4 139.6 44 144 44C148.4 44 152 40.4 152 36V31C152 26.6 148.4 23 144 23ZM149 36C149 38.8 146.8 41 144 41C141.2 41 139 38.8 139 36V31C139 28.2 141.2 26 144 26C146.8 26 149 28.2 149 31V36Z" fill="#2D3748"/>
  <path d="M163 23C158.6 23 155 26.6 155 31V36C155 40.4 158.6 44 163 44C167.4 44 171 40.4 171 36V34H168V36C168 38.8 165.8 41 163 41C160.2 41 158 38.8 158 36V31C158 28.2 160.2 26 163 26C165.8 26 168 28.2 168 31H171C171 26.6 167.4 23 163 23Z" fill="#2D3748"/>
  <path d="M180 26V23H177V44H180V31C180 28.2 182.2 26 185 26V23C182.2 23 180 24.3 180 26Z" fill="#2D3748"/>
  <path d="M195 23C190.6 23 187 26.6 187 31V36C187 40.4 190.6 44 195 44C199.4 44 203 40.4 203 36V31C203 26.6 199.4 23 195 23ZM200 36C200 38.8 197.8 41 195 41C192.2 41 190 38.8 190 36V31C190 28.2 192.2 26 195 26C197.8 26 200 28.2 200 31V36Z" fill="#2D3748"/>
  <circle cx="177" cy="44" r="2" fill="#F97316"/>
</svg> 