<svg width="600" height="400" viewBox="0 0 600 400" fill="none" xmlns="http://www.w3.org/2000/svg">
  <!-- Background -->
  <rect width="600" height="400" rx="8" fill="#F8FAFC"/>
  
  <!-- Header -->
  <rect width="600" height="60" fill="#FFFFFF"/>
  <rect x="20" y="20" width="120" height="20" rx="4" fill="#E2E8F0"/>
  <rect x="480" y="20" width="40" height="20" rx="4" fill="#E2E8F0"/>
  <rect x="530" y="20" width="40" height="20" rx="4" fill="#E2E8F0"/>
  
  <!-- Sidebar -->
  <rect width="60" height="400" fill="#FFFFFF"/>
  <rect x="20" y="80" width="20" height="20" rx="4" fill="#E2E8F0"/>
  <rect x="20" y="120" width="20" height="20" rx="4" fill="#E2E8F0"/>
  <rect x="20" y="160" width="20" height="20" rx="4" fill="#E2E8F0"/>
  <rect x="20" y="200" width="20" height="20" rx="4" fill="#E2E8F0"/>
  <rect x="20" y="240" width="20" height="20" rx="4" fill="#3B82F6"/>
  <rect x="20" y="280" width="20" height="20" rx="4" fill="#E2E8F0"/>
  
  <!-- Main Content Area -->
  <!-- Title and Filters -->
  <rect x="80" y="80" width="200" height="30" rx="4" fill="#2D3748"/>
  <rect x="80" y="120" width="500" height="1" fill="#E2E8F0"/>
  
  <rect x="400" y="80" width="80" height="24" rx="12" fill="#F1F5F9"/>
  <rect x="490" y="80" width="80" height="24" rx="12" fill="#F1F5F9"/>
  
  <!-- Charts and Widgets -->
  <!-- Card 1: Bar Chart -->
  <rect x="80" y="140" width="250" height="160" rx="8" fill="#FFFFFF" stroke="#E2E8F0"/>
  <rect x="100" y="160" width="150" height="20" rx="4" fill="#E2E8F0"/>
  
  <!-- Bar Chart -->
  <rect x="100" y="200" width="20" height="80" rx="2" fill="#3B82F6"/>
  <rect x="130" y="220" width="20" height="60" rx="2" fill="#3B82F6"/>
  <rect x="160" y="240" width="20" height="40" rx="2" fill="#3B82F6"/>
  <rect x="190" y="180" width="20" height="100" rx="2" fill="#3B82F6"/>
  <rect x="220" y="200" width="20" height="80" rx="2" fill="#F97316"/>
  <rect x="250" y="260" width="20" height="20" rx="2" fill="#F97316"/>
  
  <!-- Card 2: Line Chart -->
  <rect x="340" y="140" width="240" height="160" rx="8" fill="#FFFFFF" stroke="#E2E8F0"/>
  <rect x="360" y="160" width="150" height="20" rx="4" fill="#E2E8F0"/>
  
  <!-- Line Chart -->
  <path d="M360 260 L380 240 L400 250 L420 230 L440 220 L460 240 L480 200 L500 210 L520 190 L540 220" 
        stroke="#3B82F6" stroke-width="3" stroke-linecap="round" stroke-linejoin="round"/>
  <path d="M360 280 L380 270 L400 290 L420 260 L440 270 L460 250 L480 260 L500 240 L520 250 L540 230" 
        stroke="#F97316" stroke-width="3" stroke-linecap="round" stroke-linejoin="round"/>
  
  <!-- Card 3: Numbers Card -->
  <rect x="80" y="310" width="160" height="70" rx="8" fill="#FFFFFF" stroke="#E2E8F0"/>
  <rect x="100" y="325" width="80" height="15" rx="4" fill="#E2E8F0"/>
  <rect x="100" y="350" width="120" height="20" rx="4" fill="#3B82F6" fill-opacity="0.2"/>
  
  <!-- Card 4: Numbers Card -->
  <rect x="250" y="310" width="160" height="70" rx="8" fill="#FFFFFF" stroke="#E2E8F0"/>
  <rect x="270" y="325" width="80" height="15" rx="4" fill="#E2E8F0"/>
  <rect x="270" y="350" width="120" height="20" rx="4" fill="#F97316" fill-opacity="0.2"/>
  
  <!-- Card 5: Numbers Card -->
  <rect x="420" y="310" width="160" height="70" rx="8" fill="#FFFFFF" stroke="#E2E8F0"/>
  <rect x="440" y="325" width="80" height="15" rx="4" fill="#E2E8F0"/>
  <rect x="440" y="350" width="120" height="20" rx="4" fill="#3B82F6" fill-opacity="0.2"/>
  
  <!-- AI Prompt Area -->
  <rect x="80" y="390" width="500" height="40" rx="20" fill="#FFFFFF" stroke="#E2E8F0"/>
  <rect x="100" y="402.5" width="200" height="15" rx="4" fill="#E2E8F0"/>
  <circle cx="550" cy="410" r="15" fill="#3B82F6"/>
</svg> 